<?xml version="1.0" standalone="no"?>
<!DOCTYPE svg PUBLIC "-//W3C//DTD SVG 20010904//EN"
 "http://www.w3.org/TR/2001/REC-SVG-20010904/DTD/svg10.dtd">
<svg version="1.0" xmlns="http://www.w3.org/2000/svg"
 width="80.000000pt" height="80.000000pt" viewBox="0 0 80.000000 80.000000"
 preserveAspectRatio="xMidYMid meet">
<metadata>
Created by potrace 1.11, written by Peter Selinger 2001-2013
</metadata>
<g transform="translate(0.000000,80.000000) scale(0.100000,-0.100000)"
fill="#000000" stroke="none">
<path d="M336 670 l-44 -41 -58 26 c-78 35 -104 31 -129 -20 -15 -31 -20 -61
-20 -131 0 -83 2 -94 28 -133 35 -52 111 -91 198 -98 56 -6 59 -7 59 -33 0
-15 3 -43 7 -61 l6 -34 -41 37 c-73 66 -174 93 -231 63 -73 -37 -1 -96 164
-136 148 -35 298 -13 407 59 49 32 58 60 27 85 -44 35 -164 2 -248 -68 l-31
-27 0 55 0 54 71 6 c84 7 150 36 181 80 44 62 32 286 -18 327 -13 11 -24 10
-67 -9 -80 -35 -82 -35 -138 3 -30 20 -60 36 -67 36 -7 0 -32 -18 -56 -40z
m-138 -288 c3 -16 -2 -22 -17 -22 -26 0 -36 17 -20 36 16 19 33 13 37 -14z
m442 -3 c0 -12 -7 -19 -19 -19 -26 0 -36 17 -21 35 15 18 40 8 40 -16z m-230
-189 c0 -84 8 -96 38 -58 39 50 73 76 127 96 66 26 94 27 121 8 17 -13 17 -16
4 -30 -21 -21 -127 -72 -180 -86 -100 -28 -214 -13 -357 46 -66 27 -77 46 -42
65 52 27 162 -14 227 -85 18 -20 36 -36 41 -36 5 0 7 36 4 80 -4 57 -3 80 6
80 7 0 11 -27 11 -80z"/>
</g>
</svg>
