<?xml version="1.0" standalone="no"?>
<!DOCTYPE svg PUBLIC "-//W3C//DTD SVG 20010904//EN"
 "http://www.w3.org/TR/2001/REC-SVG-20010904/DTD/svg10.dtd">
<svg version="1.0" xmlns="http://www.w3.org/2000/svg"
 width="358.000000pt" height="358.000000pt" viewBox="0 0 358.000000 358.000000"
 preserveAspectRatio="xMidYMid meet">
<metadata>
Created by potrace 1.11, written by Peter Selinger 2001-2013
</metadata>
<g transform="translate(0.000000,358.000000) scale(0.100000,-0.100000)"
fill="#000000" stroke="none">
<path d="M1869 3553 c-1 -10 -3 -27 -4 -38 -1 -11 -6 -63 -9 -115 -4 -52 -9
-106 -11 -120 -2 -14 -6 -61 -10 -105 -3 -44 -8 -101 -11 -127 -3 -26 -1 -49
5 -52 12 -8 79 -11 85 -5 3 2 8 47 12 99 8 111 11 136 14 170 3 28 12 -18 34
-173 8 -54 16 -100 18 -102 2 -2 18 -6 35 -10 40 -6 41 -4 83 140 17 61 36
115 42 120 7 7 8 4 5 -10 -3 -11 -9 -60 -12 -110 -3 -49 -8 -102 -11 -117 -2
-16 -1 -28 3 -29 5 0 27 -2 51 -5 42 -6 42 -6 43 28 0 18 2 40 4 49 1 9 6 58
10 110 4 52 8 110 10 129 2 19 6 78 10 130 4 52 9 97 10 100 10 16 -16 29 -67
33 -66 6 -52 32 -119 -211 -23 -84 -43 -151 -44 -150 -2 2 -8 55 -15 118 -7
63 -14 123 -16 133 -2 10 -4 41 -5 68 -2 28 -6 52 -10 54 -4 3 -34 8 -68 11
-54 5 -61 4 -62 -13z"/>
<path d="M1450 3551 c-64 -6 -94 -16 -86 -29 2 -4 7 -52 10 -107 4 -55 8 -113
11 -130 2 -16 7 -61 10 -100 16 -215 19 -229 49 -220 6 2 39 6 73 9 88 7 131
34 155 96 9 23 6 118 -7 240 -3 25 -7 69 -10 98 -6 76 -51 131 -115 144 -14 2
-54 2 -90 -1z m101 -108 c8 -9 14 -51 25 -193 14 -167 10 -180 -48 -180 -22 0
-28 5 -29 23 0 12 -2 29 -4 38 -1 9 -6 58 -9 110 -4 52 -9 116 -12 143 -3 27
-3 55 0 62 5 13 63 11 77 -3z"/>
<path d="M1205 3517 c-22 -5 -41 -11 -43 -12 -1 -1 13 -73 32 -161 19 -87 34
-160 32 -162 -2 -2 -41 65 -86 147 -86 160 -86 159 -151 141 l-36 -10 18 -83
c26 -118 34 -155 69 -317 17 -80 33 -150 35 -156 3 -9 15 -9 47 -1 24 6 44 12
46 13 1 0 -4 30 -12 65 -8 35 -18 79 -21 97 -3 18 -12 58 -20 89 -8 31 -13 58
-11 60 2 3 42 -61 88 -141 82 -144 83 -146 113 -140 55 10 65 15 65 31 0 8
-25 129 -56 267 -31 138 -57 256 -58 263 -3 19 -8 20 -51 10z"/>
<path d="M2371 3225 c-63 -146 -112 -267 -110 -269 10 -10 84 -25 90 -18 4 4
17 30 27 57 18 44 23 50 48 48 54 -4 56 -8 49 -77 l-7 -65 39 -10 c60 -17 63
-16 64 37 0 26 2 54 3 62 2 8 6 56 10 105 3 50 9 137 13 195 12 170 12 172
-17 180 -14 4 -41 10 -60 13 l-35 7 -114 -265z m129 20 c-3 -31 -7 -58 -8 -60
-1 -3 -2 -16 -2 -30 0 -18 -5 -25 -19 -25 -31 0 -32 13 -7 76 13 33 26 67 29
77 11 30 13 18 7 -38z"/>
<path d="M685 3367 c-27 -11 -51 -22 -53 -23 -2 -1 8 -56 23 -121 14 -65 27
-125 29 -133 2 -8 6 -26 9 -40 14 -59 57 -260 57 -270 0 -6 -67 79 -150 187
-82 109 -162 212 -177 230 l-28 32 -34 -29 -34 -29 44 -58 c24 -32 47 -62 52
-68 4 -5 16 -21 27 -34 11 -13 20 -27 20 -30 0 -8 -64 -51 -76 -51 -5 1 -31
31 -57 68 -26 37 -57 78 -67 91 l-20 23 -35 -23 c-19 -13 -35 -27 -35 -32 0
-4 51 -74 113 -155 61 -81 138 -182 171 -224 62 -82 61 -82 114 -41 l22 18
-70 92 c-38 51 -70 96 -70 100 0 9 69 58 74 52 1 -2 34 -45 73 -95 l70 -92 31
24 c17 14 56 36 86 49 l54 24 -14 53 c-18 70 -18 73 11 86 42 19 52 14 82 -38
31 -55 37 -57 89 -35 34 14 36 16 22 37 -8 13 -77 125 -153 250 -77 126 -142
228 -145 227 -3 0 -27 -10 -55 -22z m115 -243 c23 -41 40 -77 39 -78 -2 -2
-13 -6 -24 -10 -19 -5 -23 2 -42 79 -11 47 -19 85 -17 85 1 0 21 -34 44 -76z"/>
<path d="M2804 3368 c-4 -13 -53 -129 -110 -258 -86 -195 -101 -237 -89 -246
7 -6 45 -23 84 -38 55 -23 78 -27 108 -21 48 9 101 63 127 131 11 27 32 77 47
111 52 114 59 135 59 173 0 56 -35 99 -110 136 -78 40 -106 42 -116 12z m100
-110 c45 -20 44 -36 -7 -148 -14 -30 -37 -84 -52 -120 -15 -36 -32 -71 -37
-77 -17 -21 -88 -14 -88 9 0 9 120 290 142 331 10 20 10 20 42 5z"/>
<path d="M3184 3172 c-16 -20 -33 -42 -39 -48 -5 -6 -21 -26 -35 -44 -14 -19
-36 -47 -50 -64 -14 -17 -28 -35 -33 -41 -4 -5 -43 -55 -87 -110 -44 -55 -78
-104 -76 -110 1 -5 45 -43 96 -83 l94 -73 18 23 c40 50 40 53 -5 86 -89 67
-85 54 -37 117 23 30 45 55 47 55 3 0 25 -14 49 -32 l45 -32 24 29 c30 37 31
49 3 69 -66 46 -65 40 -19 101 23 30 45 55 48 55 4 0 33 -21 66 -47 l59 -46
20 24 c40 52 41 49 -62 131 l-98 77 -28 -37z"/>
<path d="M1765 2913 c-83 -4 -206 -23 -285 -44 -83 -22 -231 -82 -272 -111
-14 -10 -29 -18 -33 -18 -19 0 -164 -111 -233 -179 -154 -150 -244 -295 -307
-491 -15 -47 -29 -96 -31 -110 -2 -14 -8 -52 -13 -85 -18 -108 -6 -317 24
-429 73 -277 223 -500 448 -668 233 -172 475 -249 772 -243 333 6 610 122 846
355 241 237 358 516 354 840 -2 148 -16 233 -56 354 -140 420 -509 732 -959
811 -57 10 -201 20 -255 18z"/>
<path d="M413 491 c-71 -33 -77 -51 -78 -232 0 -143 2 -161 21 -185 66 -90
242 -90 308 0 19 24 21 42 21 179 0 174 -7 199 -70 234 -52 29 -142 31 -202 4z
m137 -76 c18 -22 19 -287 1 -309 -15 -18 -53 -21 -82 -6 -17 10 -19 23 -19
160 0 131 2 150 18 159 25 15 68 13 82 -4z"/>
<path d="M777 504 c-4 -4 -7 -117 -7 -251 l0 -244 58 3 57 3 2 85 c1 47 2 88
2 92 1 9 50 3 60 -8 4 -5 21 -46 37 -91 l29 -83 62 0 c35 0 63 1 63 3 0 1 -18
49 -40 107 l-40 104 28 29 c24 26 27 35 27 102 0 67 -3 77 -28 103 -15 16 -43
34 -61 39 -39 12 -238 17 -249 7z m218 -96 c8 -7 8 -83 1 -105 -6 -20 -14 -23
-59 -23 l-52 0 1 66 c1 39 6 69 14 74 11 7 86 -2 95 -12z"/>
<path d="M1220 260 l0 -250 59 0 60 0 -2 248 -2 247 -57 3 -58 3 0 -251z"/>
<path d="M1524 503 c-12 -2 -39 -19 -60 -37 l-39 -34 0 -170 c0 -168 0 -171
25 -197 35 -38 71 -54 126 -59 68 -5 122 12 160 51 l34 34 0 104 0 105 -90 0
-90 0 0 -40 c0 -39 11 -48 53 -41 4 0 7 -24 7 -54 0 -43 -4 -56 -19 -65 -27
-14 -54 -13 -75 3 -17 12 -18 29 -17 158 1 153 6 169 54 169 39 0 57 -19 57
-60 l0 -40 60 0 60 0 0 44 c0 52 -34 100 -87 122 -30 13 -111 17 -159 7z"/>
<path d="M1859 503 c-4 -22 -5 -470 -1 -480 3 -8 24 -13 58 -13 l54 0 0 250 0
250 -55 0 c-30 0 -56 -3 -56 -7z"/>
<path d="M2059 488 c-1 -29 -1 -460 0 -471 1 -4 27 -7 59 -5 l57 3 0 138 c0
75 2 137 5 137 3 0 34 -63 69 -140 l64 -140 62 0 61 0 0 248 -1 247 -55 0 -55
0 -3 -150 c-3 -170 2 -171 -77 15 -26 63 -53 121 -58 128 -6 7 -33 12 -68 12
-54 0 -59 -2 -60 -22z"/>
<path d="M2631 473 c-31 -118 -111 -444 -111 -453 0 -6 25 -10 59 -10 l60 0
11 54 c10 48 14 54 38 57 66 9 78 2 91 -57 l12 -54 60 0 c41 0 59 4 59 13 -1
6 -27 118 -58 247 l-58 235 -76 3 -77 3 -10 -38z m102 -196 c12 -53 12 -67 2
-71 -20 -7 -54 5 -50 17 2 7 9 38 15 70 7 32 13 57 16 55 2 -2 10 -34 17 -71z"/>
<path d="M2993 260 l0 -250 149 0 c81 0 148 3 149 8 9 82 22 74 -108 73 l-73
0 0 209 0 210 -58 0 -59 0 0 -250z"/>
</g>
</svg>
